<?xml version="1.0" standalone="no"?>
<!DOCTYPE svg PUBLIC "-//W3C//DTD SVG 20010904//EN"
 "http://www.w3.org/TR/2001/REC-SVG-20010904/DTD/svg10.dtd">
<svg version="1.0" xmlns="http://www.w3.org/2000/svg"
 width="2000.000000pt" height="577.000000pt" viewBox="0 0 2000.000000 577.000000"
 preserveAspectRatio="xMidYMid meet">

<g transform="translate(0.000000,577.000000) scale(0.100000,-0.100000)"
fill="#000000" stroke="none">
<path d="M15874 5006 c-307 -96 -442 -464 -269 -736 78 -123 173 -188 313
-212 191 -32 389 76 481 264 40 81 69 212 54 237 -7 12 -8 22 -2 28 15 15 -9
122 -43 188 -63 122 -132 179 -281 229 -57 19 -194 20 -253 2z"/>
<path d="M12492 4651 c-61 -16 -87 -53 -187 -271 -31 -69 -86 -183 -120 -255
-35 -71 -86 -180 -114 -241 -27 -61 -73 -158 -101 -215 -28 -57 -64 -133 -80
-169 -16 -36 -49 -109 -74 -162 -137 -293 -150 -315 -174 -285 -6 7 -28 53
-50 102 -41 93 -136 302 -190 415 -47 101 -159 351 -212 474 -46 107 -63 146
-173 396 -27 63 -61 130 -75 148 -49 64 -27 62 -622 62 -600 0 -593 1 -628
-64 -16 -29 -17 -148 -20 -1685 l-2 -1653 38 -38 c33 -34 45 -39 102 -45 36
-3 211 -5 390 -3 293 3 328 5 351 21 15 10 32 30 37 45 7 17 13 300 17 777 6
740 13 898 41 943 28 43 22 52 170 -253 50 -104 104 -219 119 -255 59 -140
178 -408 208 -465 45 -89 115 -191 153 -224 43 -39 94 -44 404 -39 190 2 250
6 266 17 37 24 75 94 311 561 234 463 258 508 342 640 47 74 72 93 95 70 8 -8
12 -244 16 -868 5 -806 6 -860 24 -900 10 -23 28 -48 40 -55 15 -9 122 -13
388 -15 321 -3 372 -1 401 13 67 31 62 -95 62 1724 0 1086 -3 1662 -10 1673
-7 11 -10 -536 -10 -1655 0 -920 -1 -1598 -2 -1507 -2 91 -5 838 -7 1660 -2
822 -5 1507 -7 1522 -8 59 0 58 -566 63 -285 3 -533 1 -551 -4z m-1503 -226
c0 -5 -8 6 -19 25 -11 19 -19 40 -19 45 0 6 8 -6 19 -25 11 -19 19 -39 19 -45z
m27 -52 c9 -21 44 -99 78 -173 90 -192 141 -307 161 -365 10 -27 24 -57 30
-65 6 -8 25 -49 42 -90 30 -73 75 -171 173 -375 119 -249 155 -333 147 -341
-5 -5 -94 175 -129 261 -11 28 -33 73 -49 101 -16 28 -35 69 -43 90 -8 22 -34
82 -59 134 -25 52 -59 129 -77 170 -17 41 -37 84 -44 95 -7 11 -19 38 -26 60
-7 22 -28 70 -47 108 -18 37 -43 93 -55 125 -11 31 -34 80 -50 108 -15 28 -39
83 -52 122 -26 76 -26 98 0 35z"/>
<path d="M6952 4630 c-66 -41 -62 75 -62 -1725 0 -1785 -3 -1687 57 -1718 23
-12 103 -17 401 -22 339 -7 376 -6 417 9 25 10 51 27 57 39 10 17 13 166 14
605 0 443 4 586 13 595 9 9 152 13 574 17 521 5 565 6 590 23 16 10 32 28 37
41 4 13 10 167 12 343 3 357 6 341 -67 374 -37 17 -80 19 -587 19 -531 0 -548
1 -558 19 -6 12 -10 115 -10 265 0 197 3 247 14 259 18 17 335 27 880 27 407
0 436 3 467 54 17 29 19 57 19 358 0 279 -2 334 -16 368 -30 75 50 70 -1146
70 -1059 0 -1073 0 -1106 -20z m2235 -87 c-3 -10 -5 -2 -5 17 0 19 2 27 5 18
2 -10 2 -26 0 -35z m10 -195 c-2 -13 -4 -3 -4 22 0 25 2 35 4 23 2 -13 2 -33
0 -45z m0 -50 c-3 -8 -6 -5 -6 6 -1 11 2 17 5 13 3 -3 4 -12 1 -19z m0 -290
c-1 -51 -3 -10 -3 92 0 102 2 143 3 93 2 -51 2 -135 0 -185z m-1388 -440 c0
-131 -3 -175 -10 -153 -19 58 -12 335 7 335 2 0 4 -82 3 -182z m-2 -290 c-3
-7 -5 -2 -5 12 0 14 2 19 5 13 2 -7 2 -19 0 -25z m11 -73 c-3 -3 -9 2 -12 12
-6 14 -5 15 5 6 7 -7 10 -15 7 -18z m1198 -39 c3 -13 4 -38 1 -57 -4 -32 -4
-31 -5 8 -1 23 -6 45 -12 48 -13 8 -13 25 0 25 5 0 12 -11 16 -24z m1 -128
c-3 -8 -6 -5 -6 6 -1 11 2 17 5 13 3 -3 4 -12 1 -19z m-1207 -1105 c0 -108 -2
-194 -5 -191 -8 8 -11 388 -3 388 5 0 8 -89 8 -197z m-3 -245 c-3 -8 -6 -5 -6
6 -1 11 2 17 5 13 3 -3 4 -12 1 -19z m0 -290 c-1 -40 -3 -8 -3 72 0 80 2 112
3 73 2 -40 2 -106 0 -145z"/>
<path d="M14348 4401 c-55 -8 -102 -47 -117 -95 -5 -17 -12 -103 -15 -190 -9
-216 -15 -229 -128 -284 -85 -40 -116 -68 -138 -127 -17 -45 -14 -312 5 -385
11 -42 14 -79 10 -115 -6 -45 -4 -55 17 -79 26 -30 76 -45 153 -46 87 -1 80
61 82 -671 l2 -651 27 -97 c38 -141 77 -212 164 -301 81 -83 164 -135 270
-171 58 -19 94 -22 324 -26 278 -6 322 -1 349 40 18 28 19 48 18 359 -1 235
-1 238 -23 252 -20 13 -119 34 -188 40 -14 1 -34 8 -45 15 l-20 13 20 -7 c11
-4 27 -10 34 -13 8 -3 -3 12 -26 34 -124 121 -125 126 -121 684 3 383 5 452
18 464 11 11 54 17 167 24 150 8 153 9 184 38 17 16 35 39 40 51 4 12 9 141
10 287 2 284 0 299 -51 326 -11 6 -90 14 -176 19 -125 6 -158 11 -172 25 -15
14 -18 48 -22 249 -6 267 -9 277 -79 301 -41 15 -42 16 -11 12 l35 -5 -30 16
c-25 14 -69 17 -275 19 -135 1 -266 -1 -292 -5z m620 -107 c-3 -14 -5 -12 -10
9 -3 19 -2 25 4 19 6 -6 8 -18 6 -28z m387 -544 c3 -6 -1 -7 -9 -4 -18 7 -21
14 -7 14 6 0 13 -4 16 -10z m-388 -937 c-2 -16 -4 -5 -4 22 0 28 2 40 4 28 2
-13 2 -35 0 -50z m0 -125 c-3 -8 -6 -5 -6 6 -1 11 2 17 5 13 3 -3 4 -12 1 -19z
m0 -211 c-2 -23 -3 -1 -3 48 0 50 1 68 3 42 2 -26 2 -67 0 -90z m0 -349 c-2
-18 -4 -4 -4 32 0 36 2 50 4 33 2 -18 2 -48 0 -65z m348 -318 c4 -7 -3 -8 -22
-4 -38 9 -42 14 -10 14 14 0 29 -5 32 -10z"/>
<path d="M17870 3904 c-161 -27 -208 -38 -294 -66 -377 -122 -690 -452 -835
-883 -71 -210 -88 -448 -51 -705 22 -159 46 -243 105 -365 98 -203 261 -405
427 -528 386 -285 954 -320 1418 -87 233 117 479 343 574 528 12 24 16 45 11
72 -6 36 -12 42 -78 76 -40 20 -76 40 -82 44 -35 26 -317 165 -365 180 -81 25
-111 12 -218 -93 -202 -197 -439 -240 -672 -122 -75 38 -199 164 -238 241 -67
133 -99 275 -89 388 3 36 20 101 37 145 66 171 165 272 322 331 85 32 101 35
198 34 100 -1 109 -2 198 -42 51 -22 129 -66 173 -97 44 -31 95 -59 113 -62
41 -6 208 59 451 177 183 89 245 129 245 158 -1 89 -234 360 -405 473 -152
101 -332 169 -534 203 -112 19 -303 19 -411 0z m-403 -1461 c-3 -10 -5 -4 -5
12 0 17 2 24 5 18 2 -7 2 -21 0 -30z m10 -70 c-3 -10 -5 -4 -5 12 0 17 2 24 5
18 2 -7 2 -21 0 -30z m141 -285 c14 -15 23 -30 20 -33 -9 -9 -57 54 -89 116
-41 82 -36 87 8 9 19 -36 47 -77 61 -92z"/>
<path d="M15828 3791 c-132 -7 -150 -16 -170 -85 -16 -54 -13 -2434 3 -2484 6
-17 19 -37 29 -42 11 -6 141 -10 324 -10 l306 0 32 29 33 29 7 334 c4 183 4
718 2 1188 -6 956 -4 930 -74 1000 -37 37 -37 37 -145 43 -113 7 -153 7 -347
-2z m529 -2023 c-3 -7 -5 -2 -5 12 0 14 2 19 5 13 2 -7 2 -19 0 -25z"/>
<path d="M1775 1439 c-4 -6 -5 -13 -2 -16 7 -7 27 6 27 18 0 12 -17 12 -25 -2z"/>
</g>
</svg>
